STARTFONT 2.1
FONT -Fondu-Helvetica-Medium-I-Normal--12-120-75-75-P-57-MacRoman-1
SIZE 12 75 75
FONTBOUNDINGBOX 13 12 -1 -2
COMMENT Created by Fondu from a mac NFNT/FONT resource
STARTPROPERTIES 17
FOUNDRY "Fondu"
FAMILY_NAME "Helvetica"
WEIGHT_NAME "Medium"
SLANT "I"
SETWIDTH_NAME "Normal"
ADD_STYLE_NAME ""
PIXEL_SIZE 12
POINT_SIZE 120
RESOLUTION_X 75
RESOLUTION_Y 75
SPACING "P"
AVERAGE_WIDTH 57
CHARSET_REGISTRY "MacRoman"
CHARSET_ENCODING "1"
FONT_ASCENT 10
FONT_DESCENT 2
FACE_NAME "HelveticaItalic"
ENDPROPERTIES
CHARS 191
STARTCHAR space
ENCODING 32
SWIDTH 288 0
DWIDTH 3 0
BBX 0 0 0 -2
BITMAP
ENDCHAR
STARTCHAR exclam
ENCODING 33
SWIDTH 384 0
DWIDTH 4 0
BBX 3 8 1 0
BITMAP
20
20
20
40
40
40
00
80
ENDCHAR
STARTCHAR quotedbl
ENCODING 34
SWIDTH 384 0
DWIDTH 4 0
BBX 4 3 1 5
BITMAP
50
50
A0
ENDCHAR
STARTCHAR numbersign
ENCODING 35
SWIDTH 672 0
DWIDTH 7 0
BBX 7 7 0 0
BITMAP
14
14
7E
28
FC
50
50
ENDCHAR
STARTCHAR dollar
ENCODING 36
SWIDTH 576 0
DWIDTH 6 0
BBX 6 9 0 -1
BITMAP
08
38
54
50
38
28
A8
70
40
ENDCHAR
STARTCHAR percent
ENCODING 37
SWIDTH 864 0
DWIDTH 9 0
BBX 7 8 1 0
BITMAP
72
94
A8
D0
16
2A
52
9C
ENDCHAR
STARTCHAR ampersand
ENCODING 38
SWIDTH 768 0
DWIDTH 8 0
BBX 7 8 0 0
BITMAP
18
24
24
38
52
8C
88
74
ENDCHAR
STARTCHAR quotesingle
ENCODING 39
SWIDTH 192 0
DWIDTH 2 0
BBX 1 3 1 5
BITMAP
80
80
80
ENDCHAR
STARTCHAR parenleft
ENCODING 40
SWIDTH 384 0
DWIDTH 4 0
BBX 4 10 0 -1
BITMAP
10
20
40
40
80
80
80
80
80
40
ENDCHAR
STARTCHAR parenright
ENCODING 41
SWIDTH 384 0
DWIDTH 4 0
BBX 4 10 0 -1
BITMAP
20
10
10
10
10
10
20
20
40
80
ENDCHAR
STARTCHAR asterisk
ENCODING 42
SWIDTH 384 0
DWIDTH 4 0
BBX 4 3 1 5
BITMAP
50
60
A0
ENDCHAR
STARTCHAR plus
ENCODING 43
SWIDTH 576 0
DWIDTH 6 0
BBX 4 5 1 1
BITMAP
20
20
F0
40
40
ENDCHAR
STARTCHAR comma
ENCODING 44
SWIDTH 288 0
DWIDTH 3 0
BBX 2 3 0 -2
BITMAP
40
40
80
ENDCHAR
STARTCHAR hyphen
ENCODING 45
SWIDTH 576 0
DWIDTH 6 0
BBX 4 1 1 3
BITMAP
F0
ENDCHAR
STARTCHAR period
ENCODING 46
SWIDTH 288 0
DWIDTH 3 0
BBX 1 1 0 0
BITMAP
80
ENDCHAR
STARTCHAR slash
ENCODING 47
SWIDTH 288 0
DWIDTH 3 0
BBX 4 8 0 0
BITMAP
10
10
20
20
40
40
80
80
ENDCHAR
STARTCHAR zero
ENCODING 48
SWIDTH 576 0
DWIDTH 6 0
BBX 6 8 0 0
BITMAP
38
64
44
84
84
88
98
70
ENDCHAR
STARTCHAR one
ENCODING 49
SWIDTH 576 0
DWIDTH 6 0
BBX 3 8 2 0
BITMAP
20
E0
40
40
40
80
80
80
ENDCHAR
STARTCHAR two
ENCODING 50
SWIDTH 576 0
DWIDTH 6 0
BBX 6 8 0 0
BITMAP
38
44
04
08
30
40
80
F8
ENDCHAR
STARTCHAR three
ENCODING 51
SWIDTH 576 0
DWIDTH 6 0
BBX 6 8 0 0
BITMAP
38
44
04
38
08
08
88
70
ENDCHAR
STARTCHAR four
ENCODING 52
SWIDTH 576 0
DWIDTH 6 0
BBX 6 8 0 0
BITMAP
04
0C
14
28
48
FC
10
10
ENDCHAR
STARTCHAR five
ENCODING 53
SWIDTH 576 0
DWIDTH 6 0
BBX 6 8 0 0
BITMAP
3C
20
40
78
04
84
88
70
ENDCHAR
STARTCHAR six
ENCODING 54
SWIDTH 576 0
DWIDTH 6 0
BBX 6 8 0 0
BITMAP
38
44
40
F0
88
88
88
70
ENDCHAR
STARTCHAR seven
ENCODING 55
SWIDTH 576 0
DWIDTH 6 0
BBX 5 8 1 0
BITMAP
F8
08
10
20
20
40
80
80
ENDCHAR
STARTCHAR eight
ENCODING 56
SWIDTH 576 0
DWIDTH 6 0
BBX 6 8 0 0
BITMAP
38
44
44
78
48
88
88
70
ENDCHAR
STARTCHAR nine
ENCODING 57
SWIDTH 576 0
DWIDTH 6 0
BBX 6 8 0 0
BITMAP
38
44
44
44
3C
08
88
70
ENDCHAR
STARTCHAR colon
ENCODING 58
SWIDTH 288 0
DWIDTH 3 0
BBX 2 6 0 0
BITMAP
40
00
00
00
00
80
ENDCHAR
STARTCHAR semicolon
ENCODING 59
SWIDTH 288 0
DWIDTH 3 0
BBX 3 8 0 -2
BITMAP
20
00
00
00
00
40
40
80
ENDCHAR
STARTCHAR less
ENCODING 60
SWIDTH 576 0
DWIDTH 6 0
BBX 4 5 1 1
BITMAP
10
60
80
40
20
ENDCHAR
STARTCHAR equal
ENCODING 61
SWIDTH 672 0
DWIDTH 7 0
BBX 5 3 1 2
BITMAP
78
00
F0
ENDCHAR
STARTCHAR greater
ENCODING 62
SWIDTH 576 0
DWIDTH 6 0
BBX 4 5 1 1
BITMAP
40
20
10
60
80
ENDCHAR
STARTCHAR question
ENCODING 63
SWIDTH 576 0
DWIDTH 6 0
BBX 5 8 1 0
BITMAP
30
48
08
30
40
40
00
80
ENDCHAR
STARTCHAR at
ENCODING 64
SWIDTH 1056 0
DWIDTH 11 0
BBX 10 10 0 -2
BITMAP
0F00
3080
6040
4D40
9240
A240
A680
9B00
4000
3C00
ENDCHAR
STARTCHAR A
ENCODING 65
SWIDTH 768 0
DWIDTH 8 0
BBX 7 8 0 0
BITMAP
04
0C
14
14
24
7E
42
82
ENDCHAR
STARTCHAR B
ENCODING 66
SWIDTH 672 0
DWIDTH 7 0
BBX 7 8 0 0
BITMAP
3C
22
42
7C
44
84
8C
F8
ENDCHAR
STARTCHAR C
ENCODING 67
SWIDTH 768 0
DWIDTH 8 0
BBX 7 8 0 0
BITMAP
1C
22
40
40
80
82
84
78
ENDCHAR
STARTCHAR D
ENCODING 68
SWIDTH 768 0
DWIDTH 8 0
BBX 7 8 0 0
BITMAP
3C
22
22
42
44
84
88
F0
ENDCHAR
STARTCHAR E
ENCODING 69
SWIDTH 672 0
DWIDTH 7 0
BBX 7 8 0 0
BITMAP
3E
20
40
7C
40
80
80
F8
ENDCHAR
STARTCHAR F
ENCODING 70
SWIDTH 576 0
DWIDTH 6 0
BBX 7 8 0 0
BITMAP
3E
20
40
78
40
80
80
80
ENDCHAR
STARTCHAR G
ENCODING 71
SWIDTH 768 0
DWIDTH 8 0
BBX 8 8 0 0
BITMAP
1E
21
40
40
8E
82
84
7C
ENDCHAR
STARTCHAR H
ENCODING 72
SWIDTH 768 0
DWIDTH 8 0
BBX 8 8 0 0
BITMAP
21
21
42
7E
42
84
84
84
ENDCHAR
STARTCHAR I
ENCODING 73
SWIDTH 288 0
DWIDTH 3 0
BBX 3 8 0 0
BITMAP
20
20
40
40
40
80
80
80
ENDCHAR
STARTCHAR J
ENCODING 74
SWIDTH 672 0
DWIDTH 7 0
BBX 6 8 0 0
BITMAP
04
04
08
08
08
90
90
60
ENDCHAR
STARTCHAR K
ENCODING 75
SWIDTH 672 0
DWIDTH 7 0
BBX 7 8 0 0
BITMAP
22
24
48
70
50
88
88
84
ENDCHAR
STARTCHAR L
ENCODING 76
SWIDTH 480 0
DWIDTH 5 0
BBX 4 8 0 0
BITMAP
20
20
40
40
40
80
80
F0
ENDCHAR
STARTCHAR M
ENCODING 77
SWIDTH 864 0
DWIDTH 9 0
BBX 8 8 0 0
BITMAP
21
23
63
55
55
9A
92
92
ENDCHAR
STARTCHAR N
ENCODING 78
SWIDTH 768 0
DWIDTH 8 0
BBX 8 8 0 0
BITMAP
21
21
52
52
52
94
8C
84
ENDCHAR
STARTCHAR O
ENCODING 79
SWIDTH 768 0
DWIDTH 8 0
BBX 8 8 0 0
BITMAP
1E
21
21
42
42
84
84
78
ENDCHAR
STARTCHAR P
ENCODING 80
SWIDTH 672 0
DWIDTH 7 0
BBX 7 8 0 0
BITMAP
3C
22
42
7C
40
80
80
80
ENDCHAR
STARTCHAR Q
ENCODING 81
SWIDTH 768 0
DWIDTH 8 0
BBX 8 9 0 -1
BITMAP
1E
21
21
42
42
94
8C
7C
02
ENDCHAR
STARTCHAR R
ENCODING 82
SWIDTH 672 0
DWIDTH 7 0
BBX 7 8 0 0
BITMAP
3C
22
42
7C
44
84
88
88
ENDCHAR
STARTCHAR S
ENCODING 83
SWIDTH 672 0
DWIDTH 7 0
BBX 7 8 0 0
BITMAP
1C
22
40
38
04
84
88
70
ENDCHAR
STARTCHAR T
ENCODING 84
SWIDTH 480 0
DWIDTH 5 0
BBX 5 8 1 0
BITMAP
F8
20
40
40
40
80
80
80
ENDCHAR
STARTCHAR U
ENCODING 85
SWIDTH 768 0
DWIDTH 8 0
BBX 8 8 0 0
BITMAP
21
21
42
42
42
84
84
78
ENDCHAR
STARTCHAR V
ENCODING 86
SWIDTH 672 0
DWIDTH 7 0
BBX 6 8 1 0
BITMAP
84
84
88
88
90
90
A0
40
ENDCHAR
STARTCHAR W
ENCODING 87
SWIDTH 960 0
DWIDTH 10 0
BBX 9 8 1 0
BITMAP
8880
8880
9900
9900
AA00
6600
4400
4400
ENDCHAR
STARTCHAR X
ENCODING 88
SWIDTH 768 0
DWIDTH 8 0
BBX 8 8 0 0
BITMAP
21
22
14
18
18
28
44
84
ENDCHAR
STARTCHAR Y
ENCODING 89
SWIDTH 672 0
DWIDTH 7 0
BBX 7 8 1 0
BITMAP
82
84
48
50
20
40
40
40
ENDCHAR
STARTCHAR Z
ENCODING 90
SWIDTH 672 0
DWIDTH 7 0
BBX 7 8 0 0
BITMAP
3E
04
08
10
20
40
80
F8
ENDCHAR
STARTCHAR bracketleft
ENCODING 91
SWIDTH 384 0
DWIDTH 4 0
BBX 6 10 0 -1
BITMAP
1C
10
20
20
20
40
40
40
80
E0
ENDCHAR
STARTCHAR backslash
ENCODING 92
SWIDTH 288 0
DWIDTH 3 0
BBX 2 8 1 0
BITMAP
80
80
80
80
40
40
40
40
ENDCHAR
STARTCHAR bracketright
ENCODING 93
SWIDTH 384 0
DWIDTH 4 0
BBX 6 10 0 -1
BITMAP
1C
04
08
08
08
10
10
10
20
E0
ENDCHAR
STARTCHAR asciicircum
ENCODING 94
SWIDTH 576 0
DWIDTH 6 0
BBX 4 3 1 4
BITMAP
20
60
90
ENDCHAR
STARTCHAR underscore
ENCODING 95
SWIDTH 576 0
DWIDTH 6 0
BBX 6 1 0 0
BITMAP
FC
ENDCHAR
STARTCHAR grave
ENCODING 96
SWIDTH 288 0
DWIDTH 3 0
BBX 2 2 1 6
BITMAP
80
40
ENDCHAR
STARTCHAR a
ENCODING 97
SWIDTH 480 0
DWIDTH 5 0
BBX 5 6 0 0
BITMAP
70
08
78
90
90
68
ENDCHAR
STARTCHAR b
ENCODING 98
SWIDTH 480 0
DWIDTH 5 0
BBX 5 8 0 0
BITMAP
20
20
70
48
48
88
90
E0
ENDCHAR
STARTCHAR c
ENCODING 99
SWIDTH 480 0
DWIDTH 5 0
BBX 5 6 0 0
BITMAP
30
48
80
80
90
60
ENDCHAR
STARTCHAR d
ENCODING 100
SWIDTH 480 0
DWIDTH 5 0
BBX 6 8 0 0
BITMAP
04
04
38
48
88
90
90
70
ENDCHAR
STARTCHAR e
ENCODING 101
SWIDTH 480 0
DWIDTH 5 0
BBX 5 6 0 0
BITMAP
38
48
F0
80
90
60
ENDCHAR
STARTCHAR f
ENCODING 102
SWIDTH 384 0
DWIDTH 4 0
BBX 4 8 1 0
BITMAP
30
40
E0
40
40
80
80
80
ENDCHAR
STARTCHAR g
ENCODING 103
SWIDTH 576 0
DWIDTH 6 0
BBX 6 8 0 -2
BITMAP
1C
24
44
48
48
38
90
60
ENDCHAR
STARTCHAR h
ENCODING 104
SWIDTH 576 0
DWIDTH 6 0
BBX 6 8 0 0
BITMAP
20
20
58
64
44
88
88
88
ENDCHAR
STARTCHAR i
ENCODING 105
SWIDTH 192 0
DWIDTH 2 0
BBX 3 8 0 0
BITMAP
20
00
40
40
40
80
80
80
ENDCHAR
STARTCHAR j
ENCODING 106
SWIDTH 288 0
DWIDTH 3 0
BBX 4 10 0 -2
BITMAP
10
00
20
20
20
40
40
40
40
80
ENDCHAR
STARTCHAR k
ENCODING 107
SWIDTH 480 0
DWIDTH 5 0
BBX 5 8 0 0
BITMAP
20
20
48
50
60
A0
90
90
ENDCHAR
STARTCHAR l
ENCODING 108
SWIDTH 192 0
DWIDTH 2 0
BBX 3 8 0 0
BITMAP
20
20
40
40
40
80
80
80
ENDCHAR
STARTCHAR m
ENCODING 109
SWIDTH 768 0
DWIDTH 8 0
BBX 8 6 0 0
BITMAP
76
49
49
92
92
92
ENDCHAR
STARTCHAR n
ENCODING 110
SWIDTH 576 0
DWIDTH 6 0
BBX 6 6 0 0
BITMAP
58
64
44
88
88
88
ENDCHAR
STARTCHAR o
ENCODING 111
SWIDTH 576 0
DWIDTH 6 0
BBX 6 6 0 0
BITMAP
38
44
44
88
88
70
ENDCHAR
STARTCHAR p
ENCODING 112
SWIDTH 576 0
DWIDTH 6 0
BBX 6 8 0 -2
BITMAP
38
24
24
44
48
70
80
80
ENDCHAR
STARTCHAR q
ENCODING 113
SWIDTH 480 0
DWIDTH 5 0
BBX 5 8 0 -2
BITMAP
38
48
88
90
90
70
20
20
ENDCHAR
STARTCHAR r
ENCODING 114
SWIDTH 384 0
DWIDTH 4 0
BBX 5 6 0 0
BITMAP
58
60
40
80
80
80
ENDCHAR
STARTCHAR s
ENCODING 115
SWIDTH 480 0
DWIDTH 5 0
BBX 5 6 0 0
BITMAP
30
48
20
10
90
60
ENDCHAR
STARTCHAR t
ENCODING 116
SWIDTH 384 0
DWIDTH 4 0
BBX 4 8 1 0
BITMAP
20
20
F0
40
40
80
80
C0
ENDCHAR
STARTCHAR u
ENCODING 117
SWIDTH 480 0
DWIDTH 5 0
BBX 5 6 0 0
BITMAP
48
48
88
90
90
70
ENDCHAR
STARTCHAR v
ENCODING 118
SWIDTH 576 0
DWIDTH 6 0
BBX 5 6 1 0
BITMAP
88
90
90
A0
60
40
ENDCHAR
STARTCHAR w
ENCODING 119
SWIDTH 768 0
DWIDTH 8 0
BBX 7 6 1 0
BITMAP
92
92
92
B4
48
48
ENDCHAR
STARTCHAR x
ENCODING 120
SWIDTH 576 0
DWIDTH 6 0
BBX 6 6 0 0
BITMAP
24
28
10
30
48
88
ENDCHAR
STARTCHAR y
ENCODING 121
SWIDTH 480 0
DWIDTH 5 0
BBX 5 8 0 -2
BITMAP
48
48
50
50
20
20
40
80
ENDCHAR
STARTCHAR z
ENCODING 122
SWIDTH 480 0
DWIDTH 5 0
BBX 5 6 0 0
BITMAP
78
08
10
20
40
F0
ENDCHAR
STARTCHAR braceleft
ENCODING 123
SWIDTH 384 0
DWIDTH 4 0
BBX 4 10 0 -1
BITMAP
10
20
40
40
80
40
40
80
80
40
ENDCHAR
STARTCHAR bar
ENCODING 124
SWIDTH 288 0
DWIDTH 3 0
BBX 4 10 0 -1
BITMAP
10
10
20
20
20
40
40
40
80
80
ENDCHAR
STARTCHAR braceright
ENCODING 125
SWIDTH 384 0
DWIDTH 4 0
BBX 4 10 0 -1
BITMAP
20
10
10
20
10
20
20
20
40
80
ENDCHAR
STARTCHAR asciitilde
ENCODING 126
SWIDTH 672 0
DWIDTH 7 0
BBX 6 2 0 3
BITMAP
64
98
ENDCHAR
STARTCHAR dagger
ENCODING 160
SWIDTH 288 0
DWIDTH 3 0
BBX 0 0 0 -2
BITMAP
ENDCHAR
STARTCHAR degree
ENCODING 161
SWIDTH 384 0
DWIDTH 4 0
BBX 3 8 0 -2
BITMAP
20
00
40
40
40
80
80
80
ENDCHAR
STARTCHAR cent
ENCODING 162
SWIDTH 672 0
DWIDTH 7 0
BBX 6 8 1 -1
BITMAP
08
38
54
90
A0
A8
70
40
ENDCHAR
STARTCHAR sterling
ENCODING 163
SWIDTH 576 0
DWIDTH 6 0
BBX 6 8 0 0
BITMAP
18
24
20
78
20
20
48
B0
ENDCHAR
STARTCHAR section
ENCODING 164
SWIDTH 576 0
DWIDTH 6 0
BBX 6 6 0 1
BITMAP
24
38
48
48
70
90
ENDCHAR
STARTCHAR bullet
ENCODING 165
SWIDTH 576 0
DWIDTH 6 0
BBX 7 8 0 0
BITMAP
42
44
28
30
78
20
F0
40
ENDCHAR
STARTCHAR paragraph
ENCODING 166
SWIDTH 288 0
DWIDTH 3 0
BBX 3 10 0 -2
BITMAP
20
20
40
40
00
00
40
40
80
80
ENDCHAR
STARTCHAR germandbls
ENCODING 167
SWIDTH 576 0
DWIDTH 6 0
BBX 6 10 0 -2
BITMAP
18
24
30
58
48
48
68
30
90
60
ENDCHAR
STARTCHAR registered
ENCODING 168
SWIDTH 288 0
DWIDTH 3 0
BBX 3 1 1 7
BITMAP
A0
ENDCHAR
STARTCHAR copyright
ENCODING 169
SWIDTH 960 0
DWIDTH 10 0
BBX 8 8 1 0
BITMAP
3C
42
99
A5
A1
9D
42
3C
ENDCHAR
STARTCHAR trademark
ENCODING 170
SWIDTH 480 0
DWIDTH 5 0
BBX 5 5 0 3
BITMAP
38
08
50
00
F0
ENDCHAR
STARTCHAR acute
ENCODING 171
SWIDTH 768 0
DWIDTH 8 0
BBX 6 4 1 1
BITMAP
24
48
90
48
ENDCHAR
STARTCHAR dieresis
ENCODING 172
SWIDTH 672 0
DWIDTH 7 0
BBX 5 3 1 2
BITMAP
F8
08
08
ENDCHAR
STARTCHAR notequal
ENCODING 173
SWIDTH 576 0
DWIDTH 6 0
BBX 4 1 1 3
BITMAP
F0
ENDCHAR
STARTCHAR AE
ENCODING 174
SWIDTH 960 0
DWIDTH 10 0
BBX 8 8 1 0
BITMAP
3C
42
B9
A5
B9
A5
42
3C
ENDCHAR
STARTCHAR Oslash
ENCODING 175
SWIDTH 288 0
DWIDTH 3 0
BBX 3 1 1 7
BITMAP
E0
ENDCHAR
STARTCHAR infinity
ENCODING 176
SWIDTH 384 0
DWIDTH 4 0
BBX 3 3 1 4
BITMAP
60
A0
C0
ENDCHAR
STARTCHAR plusminus
ENCODING 177
SWIDTH 576 0
DWIDTH 6 0
BBX 5 7 0 0
BITMAP
10
10
78
20
20
00
F0
ENDCHAR
STARTCHAR lessequal
ENCODING 178
SWIDTH 288 0
DWIDTH 3 0
BBX 4 5 0 3
BITMAP
60
10
60
80
E0
ENDCHAR
STARTCHAR greaterequal
ENCODING 179
SWIDTH 288 0
DWIDTH 3 0
BBX 3 5 0 3
BITMAP
E0
20
40
20
C0
ENDCHAR
STARTCHAR yen
ENCODING 180
SWIDTH 288 0
DWIDTH 3 0
BBX 2 2 1 7
BITMAP
40
80
ENDCHAR
STARTCHAR mu
ENCODING 181
SWIDTH 480 0
DWIDTH 5 0
BBX 6 8 -1 -2
BITMAP
24
24
44
48
48
B8
80
80
ENDCHAR
STARTCHAR partialdiff
ENCODING 182
SWIDTH 576 0
DWIDTH 6 0
BBX 7 10 0 -2
BITMAP
3E
74
F4
E8
E8
50
50
50
A0
A0
ENDCHAR
STARTCHAR summation
ENCODING 183
SWIDTH 288 0
DWIDTH 3 0
BBX 1 2 1 3
BITMAP
80
80
ENDCHAR
STARTCHAR product
ENCODING 184
SWIDTH 288 0
DWIDTH 3 0
BBX 3 3 -1 -2
BITMAP
40
20
C0
ENDCHAR
STARTCHAR pi
ENCODING 185
SWIDTH 288 0
DWIDTH 3 0
BBX 2 5 1 3
BITMAP
40
C0
40
80
80
ENDCHAR
STARTCHAR integral
ENCODING 186
SWIDTH 480 0
DWIDTH 5 0
BBX 5 5 0 3
BITMAP
38
48
70
00
F0
ENDCHAR
STARTCHAR ordfeminine
ENCODING 187
SWIDTH 768 0
DWIDTH 8 0
BBX 6 4 1 1
BITMAP
48
24
48
90
ENDCHAR
STARTCHAR ordmasculine
ENCODING 188
SWIDTH 864 0
DWIDTH 9 0
BBX 8 9 2 -1
BITMAP
42
C4
48
88
92
26
2A
4F
84
ENDCHAR
STARTCHAR Omega
ENCODING 189
SWIDTH 864 0
DWIDTH 9 0
BBX 8 9 2 -1
BITMAP
42
C4
48
88
96
21
26
48
8E
ENDCHAR
STARTCHAR ae
ENCODING 190
SWIDTH 864 0
DWIDTH 9 0
BBX 9 9 1 -1
BITMAP
E100
2200
4400
2400
C900
1300
1500
2780
4200
ENDCHAR
STARTCHAR oslash
ENCODING 191
SWIDTH 576 0
DWIDTH 6 0
BBX 5 8 0 -2
BITMAP
08
00
10
10
60
80
90
60
ENDCHAR
STARTCHAR questiondown
ENCODING 192
SWIDTH 672 0
DWIDTH 7 0
BBX 7 10 -1 0
BITMAP
04
00
04
0C
14
14
24
7E
42
82
ENDCHAR
STARTCHAR exclamdown
ENCODING 193
SWIDTH 672 0
DWIDTH 7 0
BBX 7 10 -1 0
BITMAP
04
00
04
0C
14
14
24
7E
42
82
ENDCHAR
STARTCHAR logicalnot
ENCODING 194
SWIDTH 672 0
DWIDTH 7 0
BBX 7 10 -1 0
BITMAP
0A
00
04
0C
14
14
24
7E
42
82
ENDCHAR
STARTCHAR radical
ENCODING 195
SWIDTH 672 0
DWIDTH 7 0
BBX 8 10 -1 0
BITMAP
12
00
04
0C
14
14
24
7E
42
82
ENDCHAR
STARTCHAR florin
ENCODING 196
SWIDTH 672 0
DWIDTH 7 0
BBX 7 10 -1 0
BITMAP
0A
00
04
0C
14
14
24
7E
42
82
ENDCHAR
STARTCHAR approxequal
ENCODING 197
SWIDTH 672 0
DWIDTH 7 0
BBX 7 10 -1 0
BITMAP
0A
04
04
0C
14
14
24
7E
42
82
ENDCHAR
STARTCHAR Delta
ENCODING 198
SWIDTH 960 0
DWIDTH 10 0
BBX 11 8 -1 0
BITMAP
07E0
0A00
1400
17C0
2400
7C00
4800
8F80
ENDCHAR
STARTCHAR guillemotleft
ENCODING 199
SWIDTH 768 0
DWIDTH 8 0
BBX 7 10 0 -2
BITMAP
1C
22
40
40
80
82
84
78
20
C0
ENDCHAR
STARTCHAR guillemotright
ENCODING 200
SWIDTH 672 0
DWIDTH 7 0
BBX 7 10 0 0
BITMAP
08
00
3E
20
40
7C
40
80
80
F8
ENDCHAR
STARTCHAR ellipsis
ENCODING 201
SWIDTH 672 0
DWIDTH 7 0
BBX 7 10 0 0
BITMAP
08
00
3E
20
40
7C
40
80
80
F8
ENDCHAR
STARTCHAR nbspace
ENCODING 202
SWIDTH 672 0
DWIDTH 7 0
BBX 7 10 0 0
BITMAP
14
00
3E
20
40
7C
40
80
80
F8
ENDCHAR
STARTCHAR Agrave
ENCODING 203
SWIDTH 672 0
DWIDTH 7 0
BBX 7 10 0 0
BITMAP
14
00
3E
20
40
7C
40
80
80
F8
ENDCHAR
STARTCHAR Atilde
ENCODING 204
SWIDTH 288 0
DWIDTH 3 0
BBX 3 10 0 0
BITMAP
20
00
20
20
20
40
40
80
80
80
ENDCHAR
STARTCHAR Otilde
ENCODING 205
SWIDTH 288 0
DWIDTH 3 0
BBX 5 10 0 0
BITMAP
10
00
20
20
20
40
40
80
80
80
ENDCHAR
STARTCHAR OE
ENCODING 206
SWIDTH 288 0
DWIDTH 3 0
BBX 4 10 0 0
BITMAP
50
00
20
20
20
40
40
80
80
80
ENDCHAR
STARTCHAR oe
ENCODING 207
SWIDTH 288 0
DWIDTH 3 0
BBX 4 10 0 0
BITMAP
50
00
20
20
20
40
40
80
80
80
ENDCHAR
STARTCHAR endash
ENCODING 208
SWIDTH 768 0
DWIDTH 8 0
BBX 7 8 0 0
BITMAP
3C
22
22
F2
44
84
88
F0
ENDCHAR
STARTCHAR emdash
ENCODING 209
SWIDTH 768 0
DWIDTH 8 0
BBX 8 10 0 0
BITMAP
14
00
21
21
62
52
52
94
8C
84
ENDCHAR
STARTCHAR quotedblleft
ENCODING 210
SWIDTH 768 0
DWIDTH 8 0
BBX 8 10 0 0
BITMAP
04
00
1E
21
42
42
42
84
84
78
ENDCHAR
STARTCHAR quotedblright
ENCODING 211
SWIDTH 768 0
DWIDTH 8 0
BBX 8 10 0 0
BITMAP
04
00
1E
21
42
42
42
84
84
78
ENDCHAR
STARTCHAR quoteleft
ENCODING 212
SWIDTH 768 0
DWIDTH 8 0
BBX 8 10 0 0
BITMAP
0A
00
1E
21
42
42
42
84
84
78
ENDCHAR
STARTCHAR quoteright
ENCODING 213
SWIDTH 768 0
DWIDTH 8 0
BBX 8 10 0 0
BITMAP
0A
00
1E
21
42
42
42
84
84
78
ENDCHAR
STARTCHAR divide
ENCODING 214
SWIDTH 768 0
DWIDTH 8 0
BBX 8 10 0 0
BITMAP
0A
00
1E
21
42
42
42
84
84
78
ENDCHAR
STARTCHAR lozenge
ENCODING 215
SWIDTH 576 0
DWIDTH 6 0
BBX 6 5 0 1
BITMAP
44
28
30
50
88
ENDCHAR
STARTCHAR ydieresis
ENCODING 216
SWIDTH 768 0
DWIDTH 8 0
BBX 10 8 -1 0
BITMAP
0F40
1180
1280
2500
2900
5200
6200
BC00
ENDCHAR
STARTCHAR Ydieresis
ENCODING 217
SWIDTH 768 0
DWIDTH 8 0
BBX 8 10 0 0
BITMAP
04
00
21
21
42
42
82
84
84
78
ENDCHAR
STARTCHAR fraction
ENCODING 218
SWIDTH 768 0
DWIDTH 8 0
BBX 8 10 0 0
BITMAP
04
00
21
21
42
42
82
84
84
78
ENDCHAR
STARTCHAR currency
ENCODING 219
SWIDTH 768 0
DWIDTH 8 0
BBX 8 10 0 0
BITMAP
0A
00
21
21
42
42
82
84
84
78
ENDCHAR
STARTCHAR guilsinglleft
ENCODING 220
SWIDTH 768 0
DWIDTH 8 0
BBX 8 10 0 0
BITMAP
09
00
21
21
42
42
82
84
84
78
ENDCHAR
STARTCHAR guilsinglright
ENCODING 221
SWIDTH 672 0
DWIDTH 7 0
BBX 7 10 1 0
BITMAP
10
00
82
84
48
50
20
40
40
40
ENDCHAR
STARTCHAR fi
ENCODING 222
SWIDTH 672 0
DWIDTH 7 0
BBX 6 8 0 0
BITMAP
20
20
78
44
44
F8
80
80
ENDCHAR
STARTCHAR fl
ENCODING 223
SWIDTH 576 0
DWIDTH 6 0
BBX 6 8 0 0
BITMAP
18
24
44
58
48
88
88
B0
ENDCHAR
STARTCHAR daggerdbl
ENCODING 224
SWIDTH 480 0
DWIDTH 5 0
BBX 5 9 0 0
BITMAP
40
20
00
70
08
78
90
90
68
ENDCHAR
STARTCHAR periodcentered
ENCODING 225
SWIDTH 480 0
DWIDTH 5 0
BBX 5 9 0 0
BITMAP
10
20
00
70
08
78
90
90
68
ENDCHAR
STARTCHAR quotesinglbase
ENCODING 226
SWIDTH 480 0
DWIDTH 5 0
BBX 5 9 0 0
BITMAP
20
50
00
70
08
78
90
90
68
ENDCHAR
STARTCHAR quotedblbase
ENCODING 227
SWIDTH 480 0
DWIDTH 5 0
BBX 5 9 0 0
BITMAP
28
50
00
70
08
78
90
90
68
ENDCHAR
STARTCHAR perthousand
ENCODING 228
SWIDTH 480 0
DWIDTH 5 0
BBX 5 8 0 0
BITMAP
50
00
70
08
78
90
90
68
ENDCHAR
STARTCHAR Acircumflex
ENCODING 229
SWIDTH 480 0
DWIDTH 5 0
BBX 5 9 0 0
BITMAP
20
50
20
70
08
78
90
90
68
ENDCHAR
STARTCHAR Ecircumflex
ENCODING 230
SWIDTH 768 0
DWIDTH 8 0
BBX 8 6 0 0
BITMAP
77
09
7E
90
92
6C
ENDCHAR
STARTCHAR Aacute
ENCODING 231
SWIDTH 480 0
DWIDTH 5 0
BBX 6 8 -1 -2
BITMAP
18
24
40
40
48
30
20
C0
ENDCHAR
STARTCHAR Edieresis
ENCODING 232
SWIDTH 480 0
DWIDTH 5 0
BBX 5 9 0 0
BITMAP
20
10
00
38
48
F0
80
90
60
ENDCHAR
STARTCHAR Egrave
ENCODING 233
SWIDTH 480 0
DWIDTH 5 0
BBX 5 9 0 0
BITMAP
08
10
00
38
48
F0
80
90
60
ENDCHAR
STARTCHAR Iacute
ENCODING 234
SWIDTH 480 0
DWIDTH 5 0
BBX 5 9 0 0
BITMAP
10
28
00
38
48
F0
80
90
60
ENDCHAR
STARTCHAR Icircumflex
ENCODING 235
SWIDTH 480 0
DWIDTH 5 0
BBX 5 8 0 0
BITMAP
28
00
38
48
F0
80
90
60
ENDCHAR
STARTCHAR Idieresis
ENCODING 236
SWIDTH 192 0
DWIDTH 2 0
BBX 2 9 0 0
BITMAP
80
40
00
40
40
40
80
80
80
ENDCHAR
STARTCHAR Igrave
ENCODING 237
SWIDTH 192 0
DWIDTH 2 0
BBX 3 9 0 0
BITMAP
20
40
00
40
40
40
80
80
80
ENDCHAR
STARTCHAR Oacute
ENCODING 238
SWIDTH 192 0
DWIDTH 2 0
BBX 3 9 0 0
BITMAP
40
A0
00
40
40
40
80
80
80
ENDCHAR
STARTCHAR Ocircumflex
ENCODING 239
SWIDTH 192 0
DWIDTH 2 0
BBX 3 8 0 0
BITMAP
A0
00
40
40
40
80
80
80
ENDCHAR
STARTCHAR apple
ENCODING 240
SWIDTH 576 0
DWIDTH 6 0
BBX 6 9 0 0
BITMAP
64
38
48
3C
44
44
88
88
70
ENDCHAR
STARTCHAR Ograve
ENCODING 241
SWIDTH 576 0
DWIDTH 6 0
BBX 6 9 0 0
BITMAP
14
28
00
58
64
44
88
88
88
ENDCHAR
STARTCHAR Uacute
ENCODING 242
SWIDTH 576 0
DWIDTH 6 0
BBX 6 9 0 0
BITMAP
20
10
00
38
44
44
88
88
70
ENDCHAR
STARTCHAR Ucircumflex
ENCODING 243
SWIDTH 576 0
DWIDTH 6 0
BBX 6 9 0 0
BITMAP
08
10
00
38
44
44
88
88
70
ENDCHAR
STARTCHAR Ugrave
ENCODING 244
SWIDTH 576 0
DWIDTH 6 0
BBX 6 9 0 0
BITMAP
10
28
00
38
44
44
88
88
70
ENDCHAR
STARTCHAR dotlessi
ENCODING 245
SWIDTH 576 0
DWIDTH 6 0
BBX 6 9 0 0
BITMAP
14
28
00
38
44
44
88
88
70
ENDCHAR
STARTCHAR circumflex
ENCODING 246
SWIDTH 576 0
DWIDTH 6 0
BBX 6 8 0 0
BITMAP
28
00
38
44
44
88
88
70
ENDCHAR
STARTCHAR tilde
ENCODING 247
SWIDTH 576 0
DWIDTH 6 0
BBX 4 5 1 1
BITMAP
20
00
F0
00
40
ENDCHAR
STARTCHAR macron
ENCODING 248
SWIDTH 576 0
DWIDTH 6 0
BBX 8 6 -1 0
BITMAP
1D
26
2A
54
64
B8
ENDCHAR
STARTCHAR breve
ENCODING 249
SWIDTH 480 0
DWIDTH 5 0
BBX 5 9 0 0
BITMAP
20
10
00
48
48
88
90
90
70
ENDCHAR
STARTCHAR dotaccent
ENCODING 250
SWIDTH 480 0
DWIDTH 5 0
BBX 5 9 0 0
BITMAP
08
10
00
48
48
88
90
90
70
ENDCHAR
STARTCHAR ring
ENCODING 251
SWIDTH 480 0
DWIDTH 5 0
BBX 5 9 0 0
BITMAP
10
28
00
48
48
88
90
90
70
ENDCHAR
STARTCHAR cedilla
ENCODING 252
SWIDTH 480 0
DWIDTH 5 0
BBX 5 8 0 0
BITMAP
28
00
48
48
88
90
90
70
ENDCHAR
STARTCHAR hungarumlaut
ENCODING 253
SWIDTH 480 0
DWIDTH 5 0
BBX 5 11 0 -2
BITMAP
08
10
00
48
48
50
50
20
20
40
80
ENDCHAR
STARTCHAR ogonek
ENCODING 254
SWIDTH 480 0
DWIDTH 5 0
BBX 6 10 -1 -2
BITMAP
10
10
38
24
24
44
48
70
80
80
ENDCHAR
STARTCHAR caron
ENCODING 255
SWIDTH 480 0
DWIDTH 5 0
BBX 5 10 -1 -2
BITMAP
28
00
48
48
50
50
20
20
40
80
ENDCHAR
ENDFONT
